<mxfile host="65bd71144e">
    <diagram id="MSeTCVDovuJXaGlR94WE" name="Page-1">
        <mxGraphModel dx="401" dy="585" grid="1" gridSize="10" guides="1" tooltips="1" connect="0" arrows="1" fold="1" page="1" pageScale="1" pageWidth="827" pageHeight="1169" math="0" shadow="0">
            <root>
                <mxCell id="0"/>
                <mxCell id="1" parent="0"/>
                <mxCell id="4" style="edgeStyle=none;html=1;" parent="1" target="3" edge="1">
                    <mxGeometry relative="1" as="geometry">
                        <mxPoint x="220" y="110" as="sourcePoint"/>
                    </mxGeometry>
                </mxCell>
                <mxCell id="5" style="edgeStyle=none;html=1;" parent="1" source="3" edge="1">
                    <mxGeometry relative="1" as="geometry">
                        <mxPoint x="430" y="110" as="targetPoint"/>
                    </mxGeometry>
                </mxCell>
                <mxCell id="3" value="numberToLCD" style="rounded=1;whiteSpace=wrap;html=1;" parent="1" vertex="1">
                    <mxGeometry x="260" y="80" width="120" height="60" as="geometry"/>
                </mxCell>
                <mxCell id="6" value="n (123456789)" style="text;html=1;align=center;verticalAlign=middle;resizable=0;points=[];autosize=1;strokeColor=none;" parent="1" vertex="1">
                    <mxGeometry x="120" y="100" width="90" height="20" as="geometry"/>
                </mxCell>
                <mxCell id="10" value="" style="shape=image;verticalLabelPosition=bottom;labelBackgroundColor=#ffffff;verticalAlign=top;aspect=fixed;imageAspect=0;image=data:image/png,iVBORw0KGgoAAAANSUhEUgAAAM4AAAA+CAIAAADs77OKAAADkklEQVR4Ae2aMWsUQRTH80GOqOmCItYipDegHyCgH0BErG3S2NkIKawsLAQbCxubNHYWCrYiKFyM8zXkzmP33dx/d97sTOaE/FLNvX37Zua3v53Zu+xO4A8CTQjsNOmFTiAQUA0JGhFAtUag6QbVcKARAVRrBJpuUA0HGhFAtUag6QbVcKARAVRrBJpuUA0HGhFAtUag6QbVcKARAVRrBJpuUA0HGhGoq9r8w5Nbu7P479rhiy/nvvn8/nR8cDU+f3blzrPTM1+B4qzSKfz59vL+3sYMdm88ej/3ja10AKGY4a83DzZnMNs7ev3DN4OBrLqqDXRCGAKBl4iQoBUBVrVWpC99P1mqzd893D9663zmEGjPvz4/uH382fncJgqEn6/uXX/8MXpuk0F1dghnp09v3j35Hh3c/ryiAY181Az1vHQZiUsG9fk5fdkKqBZCQDV9D1tR+jaqRUtdj8a2NCZUQzVrybIt13kZ3Dh1GUC1oK0qZqh52ygbKBvowgdUs3fFIJFiTGygqBabpomg2sA36w18y4DEJYP6fP0QonNtlA2UDXThA6rZu2KQSDEmNlBUi03TRFCNDTQ2Rf/SHWeNfZZWyaCuop8zWNX0PZzDUOfaaN1ntcQLMGnVUi/ASKtsMPECTFq1xBQsu65t51X8ElFXVTdsX32Gndd2GPZjGWrVVW2ol1VcY0qctHbYWtUdkMHu6FrDXpL+AKvaf7eq9ReHFgRyCWStarnFyYdATyBLNb3RZOxffb8TW6V96Q00YzByADkPBpqhfwS6r5x5ySn4B5D1bdeWRTVLI92W10lffl0M1TSXKKoxSfrRmbU+lvaVc/fLMcsBoJpkFQVZ1SIgiY+oxgaaUGR1mFUt69+dEupUhqxqEudgkFWNVW1QjrUDU+/IrgiqoVonw2gD1dhARwXpD8pFpT+cbKEaqiUl+ZeAavqHlZxbaFsM+VrglHyVJq+Tvvy6sP5tUueqqO7r8qk25Q2cNZ6TXoBZqzD+IX1JElNIqpZ6iejiVStmOOlFrHHui6OsamlGNiOpmk1W7YtXTfVqY3IKNiHRTt+uukCWaroEUQh4CKCahxI5FQigWgWIlPAQQDUPJXIqEEC1ChAp4SGAah5K5FQggGoVIFLCQwDVPJTIqUAA1SpApISHAKp5KJFTgQCqVYBICQ8BVPNQIqcCAVSrAJESHgKo5qFETgUCqFYBIiU8BP4Chdz2swGps/wAAAAASUVORK5CYII=;" parent="1" vertex="1">
                    <mxGeometry x="440" y="80" width="206" height="62" as="geometry"/>
                </mxCell>
                <mxCell id="11" value="High Level" style="text;html=1;align=center;verticalAlign=middle;resizable=0;points=[];autosize=1;strokeColor=none;fontFamily=Comic Sans MS;" parent="1" vertex="1">
                    <mxGeometry x="110" y="20" width="70" height="20" as="geometry"/>
                </mxCell>
                <mxCell id="12" value="convert number to list of Ints&amp;nbsp;" style="text;html=1;strokeColor=none;fillColor=none;align=center;verticalAlign=middle;whiteSpace=wrap;rounded=0;fontFamily=Comic Sans MS;" parent="1" vertex="1">
                    <mxGeometry x="120" y="180" width="190" height="20" as="geometry"/>
                </mxCell>
                <mxCell id="15" value="135789 = [1,3,5,7,8,9]" style="text;html=1;align=center;verticalAlign=middle;resizable=0;points=[];autosize=1;strokeColor=none;fontFamily=Comic Sans MS;" parent="1" vertex="1">
                    <mxGeometry x="320" y="180" width="140" height="20" as="geometry"/>
                </mxCell>
                <mxCell id="16" value="map over list with a function that prints the&amp;nbsp; LCD eg numberToLCD" style="text;html=1;strokeColor=none;fillColor=none;align=center;verticalAlign=middle;whiteSpace=wrap;rounded=0;fontFamily=Comic Sans MS;" parent="1" vertex="1">
                    <mxGeometry x="130" y="210" width="190" height="20" as="geometry"/>
                </mxCell>
                <mxCell id="17" value="eg map numberToLCD [1,3,4,5,7,8,9]" style="text;html=1;align=center;verticalAlign=middle;resizable=0;points=[];autosize=1;strokeColor=none;fontFamily=Comic Sans MS;" parent="1" vertex="1">
                    <mxGeometry x="330" y="210" width="220" height="20" as="geometry"/>
                </mxCell>
                <mxCell id="18" value="n (123456789)" style="text;html=1;align=center;verticalAlign=middle;resizable=0;points=[];autosize=1;strokeColor=none;" parent="1" vertex="1">
                    <mxGeometry x="130" y="290" width="90" height="20" as="geometry"/>
                </mxCell>
                <mxCell id="21" style="edgeStyle=none;html=1;fontFamily=Comic Sans MS;" parent="1" source="19" target="20" edge="1">
                    <mxGeometry relative="1" as="geometry"/>
                </mxCell>
                <mxCell id="19" value="digits" style="rounded=1;whiteSpace=wrap;html=1;" parent="1" vertex="1">
                    <mxGeometry x="230" y="270" width="110" height="60" as="geometry"/>
                </mxCell>
                <mxCell id="22" style="edgeStyle=none;html=1;fontFamily=Comic Sans MS;" parent="1" source="20" edge="1">
                    <mxGeometry relative="1" as="geometry">
                        <mxPoint x="470" y="300" as="targetPoint"/>
                    </mxGeometry>
                </mxCell>
                <mxCell id="20" value="[1,2,3,4,5,6]" style="text;html=1;align=center;verticalAlign=middle;resizable=0;points=[];autosize=1;strokeColor=none;fontFamily=Comic Sans MS;" parent="1" vertex="1">
                    <mxGeometry x="360" y="290" width="80" height="20" as="geometry"/>
                </mxCell>
                <mxCell id="26" value="[ascii List]" style="edgeStyle=none;html=1;entryX=-0.022;entryY=0.477;entryDx=0;entryDy=0;entryPerimeter=0;" edge="1" parent="1" source="23" target="25">
                    <mxGeometry relative="1" as="geometry"/>
                </mxCell>
                <mxCell id="23" value="map digitToLCD list&amp;nbsp;" style="rounded=1;whiteSpace=wrap;html=1;fontFamily=Comic Sans MS;align=center;" parent="1" vertex="1">
                    <mxGeometry x="472" y="270" width="120" height="60" as="geometry"/>
                </mxCell>
                <mxCell id="24" value="" style="shape=image;verticalLabelPosition=bottom;labelBackgroundColor=#ffffff;verticalAlign=top;aspect=fixed;imageAspect=0;image=data:image/png,iVBORw0KGgoAAAANSUhEUgAAAM4AAAA+CAIAAADs77OKAAADkklEQVR4Ae2aMWsUQRTH80GOqOmCItYipDegHyCgH0BErG3S2NkIKawsLAQbCxubNHYWCrYiKFyM8zXkzmP33dx/d97sTOaE/FLNvX37Zua3v53Zu+xO4A8CTQjsNOmFTiAQUA0JGhFAtUag6QbVcKARAVRrBJpuUA0HGhFAtUag6QbVcKARAVRrBJpuUA0HGhFAtUag6QbVcKARAVRrBJpuUA0HGhGoq9r8w5Nbu7P479rhiy/nvvn8/nR8cDU+f3blzrPTM1+B4qzSKfz59vL+3sYMdm88ej/3ja10AKGY4a83DzZnMNs7ev3DN4OBrLqqDXRCGAKBl4iQoBUBVrVWpC99P1mqzd893D9663zmEGjPvz4/uH382fncJgqEn6/uXX/8MXpuk0F1dghnp09v3j35Hh3c/ryiAY181Az1vHQZiUsG9fk5fdkKqBZCQDV9D1tR+jaqRUtdj8a2NCZUQzVrybIt13kZ3Dh1GUC1oK0qZqh52ygbKBvowgdUs3fFIJFiTGygqBabpomg2sA36w18y4DEJYP6fP0QonNtlA2UDXThA6rZu2KQSDEmNlBUi03TRFCNDTQ2Rf/SHWeNfZZWyaCuop8zWNX0PZzDUOfaaN1ntcQLMGnVUi/ASKtsMPECTFq1xBQsu65t51X8ElFXVTdsX32Gndd2GPZjGWrVVW2ol1VcY0qctHbYWtUdkMHu6FrDXpL+AKvaf7eq9ReHFgRyCWStarnFyYdATyBLNb3RZOxffb8TW6V96Q00YzByADkPBpqhfwS6r5x5ySn4B5D1bdeWRTVLI92W10lffl0M1TSXKKoxSfrRmbU+lvaVc/fLMcsBoJpkFQVZ1SIgiY+oxgaaUGR1mFUt69+dEupUhqxqEudgkFWNVW1QjrUDU+/IrgiqoVonw2gD1dhARwXpD8pFpT+cbKEaqiUl+ZeAavqHlZxbaFsM+VrglHyVJq+Tvvy6sP5tUueqqO7r8qk25Q2cNZ6TXoBZqzD+IX1JElNIqpZ6iejiVStmOOlFrHHui6OsamlGNiOpmk1W7YtXTfVqY3IKNiHRTt+uukCWaroEUQh4CKCahxI5FQigWgWIlPAQQDUPJXIqEEC1ChAp4SGAah5K5FQggGoVIFLCQwDVPJTIqUAA1SpApISHAKp5KJFTgQCqVYBICQ8BVPNQIqcCAVSrAJESHgKo5qFETgUCqFYBIiU8BP4Chdz2swGps/wAAAAASUVORK5CYII=;" parent="1" vertex="1">
                    <mxGeometry x="910" y="272" width="206" height="62" as="geometry"/>
                </mxCell>
                <mxCell id="28" style="edgeStyle=none;html=1;" edge="1" parent="1" source="25" target="24">
                    <mxGeometry relative="1" as="geometry"/>
                </mxCell>
                <mxCell id="25" value="unwords" style="rounded=1;whiteSpace=wrap;html=1;fontFamily=Comic Sans MS;align=center;" vertex="1" parent="1">
                    <mxGeometry x="720" y="272" width="120" height="60" as="geometry"/>
                </mxCell>
                <mxCell id="27" value="&lt;div style=&quot;border: solid maroon ; padding: 1em ; font-weight: bold&quot;&gt;&lt;p class=&quot;in&quot;&gt;&lt;font color=&quot;#ffffff&quot;&gt;&lt;strong&gt;Input: &lt;/strong&gt;unwords [&quot;aa&quot;,&quot;bb&quot;,&quot;cc&quot;,&quot;dd&quot;,&quot;ee&quot;]&lt;/font&gt;&lt;/p&gt;         &lt;p class=&quot;out&quot;&gt;&lt;font color=&quot;#ffffff&quot;&gt;&lt;strong&gt;Output: &lt;/strong&gt;&quot;aa bb cc dd ee&quot;&amp;nbsp; &amp;nbsp; &amp;nbsp;&lt;/font&gt;&lt;font color=&quot;#000000&quot;&gt; &amp;nbsp; &amp;nbsp;&amp;nbsp;&lt;/font&gt;&lt;/p&gt;&lt;/div&gt;" style="text;html=1;align=left;verticalAlign=middle;resizable=0;points=[];autosize=1;strokeColor=none;" vertex="1" parent="1">
                    <mxGeometry x="670" y="340" width="280" height="100" as="geometry"/>
                </mxCell>
            </root>
        </mxGraphModel>
    </diagram>
</mxfile>